<svg width="36" height="36" viewBox="0 0 36 36" fill="none" xmlns="http://www.w3.org/2000/svg">
<path d="M18 3.375C14.5192 3.375 11.8215 8.52525 11.3377 15.6802C11.9621 16.344 12.6956 17.0021 13.509 17.6445C13.518 16.8975 13.5619 16.1854 13.6226 15.4867C14.3147 14.9998 15.0243 14.5383 15.75 14.103C18.7425 12.375 21.8227 11.2365 24.4204 10.899C24.8926 10.8366 25.3683 10.8043 25.8446 10.8023C27.3037 10.8023 28.3365 11.1532 28.7179 11.8125C29.061 12.4099 28.9069 13.3594 28.332 14.4709C28.9204 15.0165 29.4795 15.57 29.9745 16.128C31.2412 14.0321 31.5 12.1275 30.6664 10.6875C29.673 8.96963 27.3566 8.2485 24.1357 8.66588C21.249 9.03938 17.874 10.2791 14.6261 12.1556C14.4191 12.2738 14.2267 12.4054 14.0242 12.5336C14.832 8.37 16.4756 5.625 18 5.625C18.7121 5.625 19.4512 6.2325 20.1184 7.28663C20.86 7.0518 21.6124 6.85208 22.3729 6.68813C21.2085 4.60125 19.6954 3.375 18 3.375ZM10.3714 8.56462C7.93124 8.52075 6.16499 9.25088 5.33474 10.6875C4.43024 12.2512 4.80711 14.3527 6.36299 16.6601C6.50361 16.875 6.65774 17.1034 6.85124 17.3542C8.61749 19.665 11.3771 21.9679 14.625 23.8455C14.832 23.9636 15.0469 24.0694 15.2584 24.1875C13.9702 24.6319 12.7226 24.9525 11.5751 25.1021C9.38136 25.3867 7.77824 25.0448 7.28661 24.1875C6.93899 23.5901 7.09311 22.6406 7.66911 21.5291C7.09618 21.0023 6.54629 20.4509 6.02099 19.8765C4.75874 21.969 4.49999 23.8703 5.33474 25.3125C6.14361 26.7143 7.83111 27.4523 10.1689 27.4523C10.701 27.4523 11.2714 27.4129 11.8654 27.3341C12.2074 27.2891 12.5531 27.2321 12.9026 27.1631L13.149 27.1102C13.1647 27.1095 13.1805 27.1065 13.1962 27.1013C13.7947 26.9741 14.454 26.7975 15.21 26.5613L15.9525 26.3318C17.055 25.9538 18.1845 25.4835 19.314 24.9345C19.5604 24.1166 19.7797 23.1638 19.9462 22.0658C19.296 22.4291 18.6412 22.7587 17.991 23.067C17.2268 22.7108 16.4791 22.3204 15.75 21.897C12.753 20.1668 10.2262 18.0709 8.63999 15.9907C7.29449 14.229 6.78936 12.6698 7.28661 11.8125C7.62411 11.2241 8.52074 10.89 9.75599 10.8281C9.92999 10.0316 10.1351 9.27712 10.3714 8.56462ZM23.3347 13.3852C22.4471 13.5922 21.5066 13.896 20.5447 14.2774C21.1815 14.6554 21.7879 15.0604 22.3774 15.4643C22.4471 16.2821 22.5 17.1169 22.5 18C22.5 24.6352 20.4131 29.6978 18.405 30.3086C18.2677 30.3536 18.1271 30.375 18 30.375C17.2879 30.375 16.5487 29.7731 15.8816 28.71C15.1166 28.9508 14.3617 29.1578 13.6271 29.3119C14.7915 31.3988 16.3046 32.625 18 32.625C18.2235 32.625 18.4402 32.6029 18.6502 32.5586C22.1704 31.8915 24.75 25.8615 24.75 18C24.75 17.7581 24.732 17.5252 24.7275 17.2834C25.7569 18.1755 26.6625 19.0946 27.3645 20.0081C28.7055 21.771 29.2095 23.3302 28.7179 24.1875C28.3714 24.7804 27.4882 25.1235 26.244 25.1854C26.0795 25.9469 25.8756 26.6995 25.6331 27.4399C25.695 27.4399 25.7692 27.4523 25.8311 27.4523C28.1689 27.4523 29.8564 26.7143 30.6652 25.3125C31.6586 23.5946 31.122 21.2254 29.1487 18.6457C27.7515 16.8176 25.7254 14.9985 23.3347 13.3852ZM18 15.75C17.4033 15.75 16.831 15.9871 16.409 16.409C15.987 16.831 15.75 17.4033 15.75 18C15.75 18.5967 15.987 19.169 16.409 19.591C16.831 20.0129 17.4033 20.25 18 20.25C18.5967 20.25 19.169 20.0129 19.591 19.591C20.0129 19.169 20.25 18.5967 20.25 18C20.25 17.4033 20.0129 16.831 19.591 16.409C19.169 15.9871 18.5967 15.75 18 15.75Z" fill="url(#paint0_linear_236_49)"/>
<defs>
<linearGradient id="paint0_linear_236_49" x1="18.0017" y1="3.375" x2="18.0017" y2="32.625" gradientUnits="userSpaceOnUse">
<stop stop-color="#00C2FF"/>
<stop offset="1" stop-color="#8A2BE2"/>
</linearGradient>
</defs>
</svg>
